<?xml version="1.0" encoding="UTF-8" standalone="no"?>
<!-- Created with Inkscape (http://www.inkscape.org/) -->

<svg
   xmlns:dc="http://purl.org/dc/elements/1.1/"
   xmlns:cc="http://creativecommons.org/ns#"
   xmlns:rdf="http://www.w3.org/1999/02/22-rdf-syntax-ns#"
   xmlns:svg="http://www.w3.org/2000/svg"
   xmlns="http://www.w3.org/2000/svg"
   xmlns:sodipodi="http://sodipodi.sourceforge.net/DTD/sodipodi-0.dtd"
   xmlns:inkscape="http://www.inkscape.org/namespaces/inkscape"
   version="1.1"
   id="svg3818"
   xml:space="preserve"
   width="294.80267"
   height="264.56668"
   viewBox="0 0 294.80267 264.56668"
   sodipodi:docname="CukiGrooms_logo_mono_RGB.svg"
   inkscape:version="0.92.5 (2060ec1f9f, 2020-04-08)"><metadata
     id="metadata3824"><rdf:RDF><cc:Work
         rdf:about=""><dc:format>image/svg+xml</dc:format><dc:type
           rdf:resource="http://purl.org/dc/dcmitype/StillImage" /><dc:title></dc:title></cc:Work></rdf:RDF></metadata><defs
     id="defs3822"><clipPath
       clipPathUnits="userSpaceOnUse"
       id="clipPath3834"><path
         d="M 0,198.425 H 221.102 V 0 H 0 Z"
         id="path3832"
         inkscape:connector-curvature="0" /></clipPath></defs><sodipodi:namedview
     pagecolor="#ffffff"
     bordercolor="#666666"
     borderopacity="1"
     objecttolerance="10"
     gridtolerance="10"
     guidetolerance="10"
     inkscape:pageopacity="0"
     inkscape:pageshadow="2"
     inkscape:window-width="1850"
     inkscape:window-height="1016"
     id="namedview3820"
     showgrid="false"
     inkscape:zoom="3.125866"
     inkscape:cx="147.40134"
     inkscape:cy="132.28334"
     inkscape:window-x="70"
     inkscape:window-y="27"
     inkscape:window-maximized="1"
     inkscape:current-layer="g3826" /><g
     id="g3826"
     inkscape:groupmode="layer"
     inkscape:label="CukiGrooms_logo_mono_RGB"
     transform="matrix(1.3333333,0,0,-1.3333333,0,264.56667)"><g
       id="g3828"><g
         id="g3830"
         clip-path="url(#clipPath3834)"><g
           id="g3836"
           transform="translate(110.5508,79.9312)"><path
             d="m 0,0 c -3.28,0 -5.948,2.669 -5.948,5.948 v 9.886 c 1.736,0.448 3.287,1.359 4.514,2.593 V 5.677 c 0,-0.792 0.642,-1.434 1.434,-1.434 0.792,0 1.434,0.642 1.434,1.434 v 12.75 C 2.662,17.193 4.213,16.282 5.949,15.834 V 5.948 C 5.949,2.669 3.28,0 0,0 m 8.817,5.948 v 9.584 c 5.239,0.215 9.436,4.543 9.436,9.834 0,0.792 -0.642,1.434 -1.434,1.434 -0.792,0 -1.435,-0.642 -1.435,-1.434 0,-3.846 -3.129,-6.975 -6.974,-6.975 -3.793,0 -6.883,3.045 -6.968,6.818 0.683,0.321 1.326,0.87 1.866,1.658 l 0.198,0.29 c 1.82,2.658 0.673,4.833 -2.548,4.833 h -1.916 c -3.221,0 -4.367,-2.175 -2.548,-4.833 l 0.198,-0.29 c 0.54,-0.788 1.183,-1.337 1.866,-1.658 -0.084,-3.773 -3.173,-6.818 -6.967,-6.818 -3.846,0 -6.975,3.129 -6.975,6.975 0,0.792 -0.642,1.434 -1.434,1.434 -0.792,0 -1.434,-0.642 -1.434,-1.434 0,-5.291 4.196,-9.619 9.436,-9.834 V 5.948 c 0,-4.861 3.955,-8.816 8.816,-8.816 4.862,0 8.817,3.955 8.817,8.816"
             style="fill:#000000;fill-opacity:1;fill-rule:nonzero;stroke:none"
             id="path3838"
             inkscape:connector-curvature="0" /></g><g
           id="g3840"
           transform="translate(97.0831,118.8975)"><path
             d="m 0,0 c 0,-1.854 1.508,-3.361 3.361,-3.361 1.854,0 3.362,1.507 3.362,3.361 0,1.854 -1.508,3.361 -3.362,3.361 C 1.508,3.361 0,1.854 0,0"
             style="fill:#000000;fill-opacity:1;fill-rule:nonzero;stroke:none"
             id="path3842"
             inkscape:connector-curvature="0" /></g><g
           id="g3844"
           transform="translate(120.6578,122.2589)"><path
             d="m 0,0 c -1.854,0 -3.361,-1.508 -3.361,-3.361 0,-1.854 1.507,-3.362 3.361,-3.362 1.854,0 3.361,1.508 3.361,3.362 C 3.361,-1.508 1.854,0 0,0"
             style="fill:#000000;fill-opacity:1;fill-rule:nonzero;stroke:none"
             id="path3846"
             inkscape:connector-curvature="0" /></g><g
           id="g3848"
           transform="translate(86.4429,86.4029)"><path
             d="M 0,0 C 1.594,1.33 3.642,1.996 5.763,1.868 6.922,1.801 7.438,1.632 8.398,1.158 9.11,0.809 9.969,1.102 10.319,1.812 c 0.349,0.71 0.057,1.57 -0.653,1.92 -1.22,0.601 -2.09,0.904 -3.734,1 -2.854,0.166 -5.613,-0.73 -7.77,-2.529 -2.183,-1.823 -3.475,-4.337 -3.638,-7.081 -0.161,-2.744 0.825,-5.397 2.777,-7.47 1.931,-2.05 4.567,-3.272 7.42,-3.441 0.22,-0.013 0.441,-0.019 0.66,-0.019 2.417,0 4.779,0.781 6.712,2.232 0.634,0.474 0.761,1.374 0.286,2.008 -0.476,0.633 -1.374,0.761 -2.008,0.286 -1.567,-1.175 -3.513,-1.763 -5.481,-1.643 -2.12,0.125 -4.074,1.029 -5.501,2.544 -1.405,1.492 -2.116,3.386 -2.001,5.334 C -2.497,-3.102 -1.569,-1.31 0,0"
             style="fill:#000000;fill-opacity:1;fill-rule:nonzero;stroke:none"
             id="path3850"
             inkscape:connector-curvature="0" /></g><g
           id="g3852"
           transform="translate(140.6822,75.2134)"><path
             d="m 0,0 c 0.592,0.527 0.643,1.435 0.115,2.025 l -8.236,9.227 7.487,7.051 c 0.577,0.544 0.605,1.451 0.062,2.028 -0.544,0.576 -1.451,0.604 -2.028,0.061 l -8.501,-8.006 c -0.003,-0.002 -0.004,-0.005 -0.007,-0.007 l -2.373,-2.235 v 4.839 c 0,0.792 -0.643,1.434 -1.435,1.434 -0.792,0 -1.435,-0.642 -1.435,-1.434 V 6.826 6.818 2.652 c 0,-0.793 0.643,-1.434 1.435,-1.434 0.792,0 1.435,0.641 1.435,1.434 v 3.551 l 3.271,3.081 8.185,-9.169 c 0.284,-0.317 0.676,-0.479 1.071,-0.479 0.34,0 0.681,0.12 0.954,0.364"
             style="fill:#000000;fill-opacity:1;fill-rule:nonzero;stroke:none"
             id="path3854"
             inkscape:connector-curvature="0" /></g><g
           id="g3856"
           transform="translate(145.8179,86.189)"><path
             d="m 0,0 v -14.414 c 0,-0.792 0.643,-1.435 1.435,-1.435 0.792,0 1.434,0.643 1.434,1.435 L 2.869,0 C 2.869,0.792 2.227,1.435 1.435,1.435 0.643,1.435 0,0.792 0,0"
             style="fill:#000000;fill-opacity:1;fill-rule:nonzero;stroke:none"
             id="path3858"
             inkscape:connector-curvature="0" /></g><g
           id="g3860"
           transform="translate(70.1041,68.6275)"><path
             d="m 0,0 h 4.932 c 2.651,0 5.811,-0.69 5.811,-3.979 0,-2.863 -2.246,-3.819 -4.54,-4.048 C 6.151,-8.029 6.1,-8.034 6.049,-8.042 5.673,-8.074 5.298,-8.088 4.932,-8.088 H 0 Z m -2.869,1.435 v -16.031 c 0,-0.792 0.642,-1.433 1.435,-1.433 0.792,0 1.434,0.641 1.434,1.433 v 3.64 h 4.932 c 0.237,0 0.47,0.005 0.699,0.015 l 6.235,-7.412 c 0.284,-0.336 0.69,-0.51 1.098,-0.51 0.327,0 0.654,0.11 0.923,0.337 0.607,0.509 0.684,1.414 0.175,2.02 l -5.156,6.127 c 3.004,0.995 4.705,3.236 4.705,6.4 0,4.288 -3.244,6.847 -8.679,6.847 h -6.366 c -0.793,0 -1.435,-0.641 -1.435,-1.433"
             style="fill:#000000;fill-opacity:1;fill-rule:nonzero;stroke:none"
             id="path3862"
             inkscape:connector-curvature="0" /></g><g
           id="g3864"
           transform="translate(43.4068,69.8013)"><path
             d="m 0,0 c 0,-5.837 4.854,-10.586 10.821,-10.586 2.658,0 5.231,0.971 7.246,2.734 0.311,0.273 0.49,0.666 0.49,1.08 v 5.585 c 0,0.791 -0.642,1.434 -1.434,1.434 h -6.108 c -0.792,0 -1.434,-0.643 -1.434,-1.434 0,-0.792 0.642,-1.435 1.434,-1.435 h 4.673 V -6.09 c -1.407,-1.054 -3.113,-1.628 -4.867,-1.628 -4.385,0 -7.953,3.462 -7.953,7.718 0,4.241 3.568,7.691 7.953,7.691 1.965,0 3.858,-0.71 5.332,-1.998 0.596,-0.522 1.502,-0.462 2.023,0.135 0.522,0.596 0.461,1.502 -0.135,2.024 -1.996,1.746 -4.56,2.708 -7.22,2.708 C 4.854,10.56 0,5.822 0,0"
             style="fill:#000000;fill-opacity:1;fill-rule:nonzero;stroke:none"
             id="path3866"
             inkscape:connector-curvature="0" /></g><g
           id="g3868"
           transform="translate(141.647,49.5318)"><path
             d="M 0,0 V 12.893 L 5.301,4.636 C 5.564,4.225 6.02,3.976 6.508,3.976 H 6.56 c 0.489,0 0.944,0.25 1.208,0.662 l 5.283,8.256 0.016,-8.496 c 0.002,-0.792 0.644,-1.431 1.435,-1.431 h 0.002 c 0.793,10e-4 1.434,0.644 1.432,1.436 L 15.91,17.784 c -10e-4,0.637 -0.422,1.195 -1.033,1.374 -0.611,0.178 -1.266,-0.067 -1.609,-0.604 L 6.531,8.027 -0.228,18.556 c -0.343,0.536 -0.998,0.78 -1.61,0.601 -0.611,-0.178 -1.03,-0.739 -1.03,-1.376 L -2.868,0 c 0,-0.792 0.641,-1.434 1.433,-1.434 C -0.643,-1.434 0,-0.792 0,0"
             style="fill:#000000;fill-opacity:1;fill-rule:nonzero;stroke:none"
             id="path3870"
             inkscape:connector-curvature="0" /></g><g
           id="g3872"
           transform="translate(173.8482,62.1754)"><path
             d="m 0,0 c -0.606,-0.556 -1.994,-1.451 -4.481,-1.233 -1.733,0.154 -3.582,0.962 -4.947,2.162 -0.594,0.523 -1.501,0.465 -2.024,-0.13 -0.523,-0.595 -0.465,-1.501 0.13,-2.025 1.833,-1.612 4.234,-2.656 6.588,-2.864 0.336,-0.03 0.668,-0.045 0.994,-0.045 2.249,0 4.238,0.702 5.677,2.019 1.214,1.111 1.91,2.594 1.91,4.053 0.044,4.29 -4.151,5.365 -7.522,6.228 -3.862,0.99 -5.682,1.687 -5.682,3.784 0,2.132 2.578,3.326 5.003,3.367 1.693,0.015 3.553,-0.622 4.719,-1.659 0.593,-0.526 1.499,-0.472 2.026,0.119 0.526,0.593 0.472,1.499 -0.12,2.026 -1.7,1.51 -4.255,2.43 -6.673,2.382 -5.137,-0.087 -7.824,-3.203 -7.824,-6.235 0,-4.553 4.347,-5.667 7.839,-6.562 C -0.726,4.448 0.997,3.806 0.979,1.952 0.979,1.28 0.622,0.569 0,0"
             style="fill:#000000;fill-opacity:1;fill-rule:nonzero;stroke:none"
             id="path3874"
             inkscape:connector-curvature="0" /></g><g
           id="g3876"
           transform="translate(99.6021,47.4468)"><path
             d="m 0,0 c -4.264,0 -7.733,3.36 -7.733,7.49 0,4.114 3.469,7.462 7.733,7.462 4.264,0 7.733,-3.348 7.733,-7.462 C 7.733,3.36 4.264,0 0,0 m 0,17.821 c -5.846,0 -10.602,-4.634 -10.602,-10.331 0,-5.712 4.756,-10.358 10.602,-10.358 5.846,0 10.602,4.646 10.602,10.358 0,5.697 -4.756,10.331 -10.602,10.331"
             style="fill:#000000;fill-opacity:1;fill-rule:nonzero;stroke:none"
             id="path3878"
             inkscape:connector-curvature="0" /></g><g
           id="g3880"
           transform="translate(99.1177,60.063)"><path
             d="m 0,0 c -2.59,0 -4.697,-2.057 -4.697,-4.584 0,-0.477 0.386,-0.862 0.863,-0.862 0.476,0 0.862,0.385 0.862,0.862 0,1.576 1.333,2.859 2.972,2.859 0.477,0 0.863,0.386 0.863,0.863 C 0.863,-0.386 0.477,0 0,0"
             style="fill:#000000;fill-opacity:1;fill-rule:nonzero;stroke:none"
             id="path3882"
             inkscape:connector-curvature="0" /></g><g
           id="g3884"
           transform="translate(123.5045,54.8287)"><path
             d="m 0,0 c -4.265,0 -7.733,3.36 -7.733,7.49 0,4.115 3.468,7.463 7.733,7.463 4.264,0 7.733,-3.348 7.733,-7.463 C 7.733,3.36 4.264,0 0,0 m 0,17.821 c -5.846,0 -10.602,-4.634 -10.602,-10.331 0,-5.712 4.756,-10.358 10.602,-10.358 5.846,0 10.602,4.646 10.602,10.358 0,5.697 -4.756,10.331 -10.602,10.331"
             style="fill:#000000;fill-opacity:1;fill-rule:nonzero;stroke:none"
             id="path3886"
             inkscape:connector-curvature="0" /></g><g
           id="g3888"
           transform="translate(123.0201,67.4449)"><path
             d="m 0,0 c -2.59,0 -4.696,-2.057 -4.696,-4.584 0,-0.477 0.385,-0.862 0.862,-0.862 0.477,0 0.862,0.385 0.862,0.862 0,1.576 1.333,2.859 2.972,2.859 0.477,0 0.862,0.386 0.862,0.863 C 0.862,-0.386 0.477,0 0,0"
             style="fill:#000000;fill-opacity:1;fill-rule:nonzero;stroke:none"
             id="path3890"
             inkscape:connector-curvature="0" /></g><g
           id="g3892"
           transform="translate(139.1509,113.6939)"><path
             d="m 0,0 c -3.817,0 -6.924,3.007 -6.924,6.702 0,3.682 3.107,6.677 6.924,6.677 3.817,0 6.924,-2.995 6.924,-6.677 C 6.924,3.007 3.817,0 0,0 m 0,16.248 c -5.399,0 -9.792,-4.283 -9.792,-9.546 0,-5.277 4.393,-9.57 9.792,-9.57 5.399,0 9.792,4.293 9.792,9.57 0,5.263 -4.393,9.546 -9.792,9.546"
             style="fill:#000000;fill-opacity:1;fill-rule:nonzero;stroke:none"
             id="path3894"
             inkscape:connector-curvature="0" /></g><g
           id="g3896"
           transform="translate(139.1031,124.5557)"><path
             d="m 0,0 c -2.403,0 -4.358,-1.909 -4.358,-4.255 0,-0.476 0.385,-0.863 0.862,-0.863 0.476,0 0.862,0.387 0.862,0.863 0,1.395 1.182,2.53 2.634,2.53 0.477,0 0.862,0.386 0.862,0.863 C 0.862,-0.386 0.477,0 0,0"
             style="fill:#000000;fill-opacity:1;fill-rule:nonzero;stroke:none"
             id="path3898"
             inkscape:connector-curvature="0" /></g><g
           id="g3900"
           transform="translate(75.0279,113.1324)"><path
             d="M 0,0 C 0,3.33 2.811,6.039 6.267,6.039 9.722,6.039 12.533,3.33 12.533,0 12.533,-3.343 9.722,-6.062 6.267,-6.062 2.811,-6.062 0,-3.343 0,0 m 15.401,0 c 0,4.912 -4.098,8.907 -9.134,8.907 -5.038,0 -9.136,-3.995 -9.136,-8.907 0,-4.924 4.098,-8.93 9.136,-8.93 5.036,0 9.134,4.006 9.134,8.93"
             style="fill:#000000;fill-opacity:1;fill-rule:nonzero;stroke:none"
             id="path3902"
             inkscape:connector-curvature="0" /></g><g
           id="g3904"
           transform="translate(82.1124,116.1705)"><path
             d="m 0,0 c 0,0.476 -0.386,0.862 -0.862,0.862 -2.252,0 -4.084,-1.789 -4.084,-3.988 0,-0.476 0.386,-0.862 0.863,-0.862 0.476,0 0.862,0.386 0.862,0.862 0,1.248 1.058,2.263 2.359,2.263 C -0.386,-0.863 0,-0.477 0,0"
             style="fill:#000000;fill-opacity:1;fill-rule:nonzero;stroke:none"
             id="path3906"
             inkscape:connector-curvature="0" /></g><g
           id="g3908"
           transform="translate(118.8472,142.4229)"><path
             d="m 0,0 c 0,-4.734 -3.975,-8.586 -8.859,-8.586 -4.886,0 -8.86,3.852 -8.86,8.586 0,4.717 3.974,8.556 8.86,8.556 C -3.975,8.556 0,4.717 0,0 m -22.865,-13.622 c -3.292,0 -5.969,2.59 -5.969,5.773 0,3.171 2.677,5.75 5.969,5.75 0.912,0 1.788,-0.198 2.606,-0.585 0.539,-2.184 1.72,-4.125 3.337,-5.622 -0.247,-2.951 -2.858,-5.316 -5.943,-5.316 m 2.29,14.094 c -0.742,0.196 -1.507,0.298 -2.29,0.298 -4.873,0 -8.838,-3.867 -8.838,-8.619 0,-4.765 3.965,-8.641 8.838,-8.641 4.005,0 7.478,2.721 8.518,6.371 1.639,-0.851 3.506,-1.336 5.488,-1.336 6.466,0 11.727,5.139 11.727,11.455 0,6.299 -5.261,11.424 -11.727,11.424 -6.305,0 -11.461,-4.871 -11.716,-10.952"
             style="fill:#000000;fill-opacity:1;fill-rule:nonzero;stroke:none"
             id="path3910"
             inkscape:connector-curvature="0" /></g><g
           id="g3912"
           transform="translate(96.0225,138.4483)"><path
             d="m 0,0 c -2.183,0 -3.959,-1.735 -3.959,-3.868 0,-0.476 0.386,-0.862 0.862,-0.862 0.477,0 0.863,0.386 0.863,0.862 0,1.182 1.002,2.143 2.234,2.143 0.477,0 0.862,0.386 0.862,0.863 C 0.862,-0.386 0.477,0 0,0"
             style="fill:#000000;fill-opacity:1;fill-rule:nonzero;stroke:none"
             id="path3914"
             inkscape:connector-curvature="0" /></g><g
           id="g3916"
           transform="translate(131.9107,133.0757)"><path
             d="m 0,0 c -2.317,0 -4.202,1.82 -4.202,4.056 0,2.228 1.885,4.04 4.202,4.04 2.316,0 4.202,-1.812 4.202,-4.04 C 4.202,1.82 2.316,0 0,0 m 6.783,4.056 c 0,3.652 -3.043,6.622 -6.783,6.622 -3.741,0 -6.784,-2.97 -6.784,-6.622 0,-3.66 3.043,-6.638 6.784,-6.638 3.74,0 6.783,2.978 6.783,6.638"
             style="fill:#000000;fill-opacity:1;fill-rule:nonzero;stroke:none"
             id="path3918"
             inkscape:connector-curvature="0" /></g><g
           id="g3920"
           transform="translate(132.8619,139.5679)"><path
             d="m 0,0 c -1.71,0 -3.101,-1.36 -3.101,-3.033 0,-0.443 0.36,-0.802 0.803,-0.802 0.444,0 0.803,0.359 0.803,0.802 0,0.787 0.671,1.427 1.495,1.427 0.443,0 0.803,0.36 0.803,0.803 C 0.803,-0.359 0.443,0 0,0"
             style="fill:#000000;fill-opacity:1;fill-rule:nonzero;stroke:none"
             id="path3922"
             inkscape:connector-curvature="0" /></g><g
           id="g3924"
           transform="translate(104.1734,143.0635)"><path
             d="m 0,0 c 0,-0.536 0.433,-0.969 0.968,-0.969 0.534,0 0.968,0.433 0.968,0.969 0,1.771 1.496,3.212 3.335,3.212 0.535,0 0.968,0.434 0.968,0.969 C 6.239,4.716 5.806,5.15 5.271,5.15 2.365,5.15 0,2.84 0,0"
             style="fill:#000000;fill-opacity:1;fill-rule:nonzero;stroke:none"
             id="path3926"
             inkscape:connector-curvature="0" /></g></g></g></g></svg>