<?xml version="1.0" encoding="UTF-8" standalone="no"?>
<!-- Created with Inkscape (http://www.inkscape.org/) -->

<svg
   xmlns:dc="http://purl.org/dc/elements/1.1/"
   xmlns:cc="http://creativecommons.org/ns#"
   xmlns:rdf="http://www.w3.org/1999/02/22-rdf-syntax-ns#"
   xmlns:svg="http://www.w3.org/2000/svg"
   xmlns="http://www.w3.org/2000/svg"
   xmlns:sodipodi="http://sodipodi.sourceforge.net/DTD/sodipodi-0.dtd"
   xmlns:inkscape="http://www.inkscape.org/namespaces/inkscape"
   version="1.1"
   id="svg4040"
   xml:space="preserve"
   width="188.976"
   height="188.976"
   viewBox="0 0 188.976 188.976"
   sodipodi:docname="CukiGrooms_znak_mono_RGB.ai"
   inkscape:version="0.92.5 (2060ec1f9f, 2020-04-08)"><metadata
     id="metadata4046"><rdf:RDF><cc:Work
         rdf:about=""><dc:format>image/svg+xml</dc:format><dc:type
           rdf:resource="http://purl.org/dc/dcmitype/StillImage" /><dc:title></dc:title></cc:Work></rdf:RDF></metadata><defs
     id="defs4044"><clipPath
       clipPathUnits="userSpaceOnUse"
       id="clipPath4056"><path
         d="M 0,141.732 H 141.732 V 0 H 0 Z"
         id="path4054"
         inkscape:connector-curvature="0" /></clipPath></defs><sodipodi:namedview
     pagecolor="#ffffff"
     bordercolor="#666666"
     borderopacity="1"
     objecttolerance="10"
     gridtolerance="10"
     guidetolerance="10"
     inkscape:pageopacity="0"
     inkscape:pageshadow="2"
     inkscape:window-width="1850"
     inkscape:window-height="1016"
     id="namedview4042"
     showgrid="false"
     inkscape:zoom="1.2488358"
     inkscape:cx="94.487999"
     inkscape:cy="94.487999"
     inkscape:window-x="70"
     inkscape:window-y="27"
     inkscape:window-maximized="1"
     inkscape:current-layer="g4048" /><g
     id="g4048"
     inkscape:groupmode="layer"
     inkscape:label="CukiGrooms_znak_mono_RGB"
     transform="matrix(1.3333333,0,0,-1.3333333,0,188.976)"><g
       id="g4050"><g
         id="g4052"
         clip-path="url(#clipPath4056)"><g
           id="g4058"
           transform="translate(70.9449,29.2683)"><path
             d="m 0,0 c -3.847,0 -6.978,3.13 -6.978,6.977 v 11.595 c 2.037,0.526 3.856,1.595 5.295,3.042 V 6.658 c 0,-0.928 0.754,-1.682 1.683,-1.682 0.929,0 1.682,0.754 1.682,1.682 v 14.956 c 1.441,-1.447 3.26,-2.516 5.296,-3.042 V 6.977 C 6.978,3.13 3.847,0 0,0 m 10.342,6.977 v 11.242 c 6.146,0.252 11.069,5.328 11.069,11.534 0,0.93 -0.753,1.683 -1.683,1.683 -0.929,0 -1.682,-0.753 -1.682,-1.683 0,-4.511 -3.671,-8.182 -8.182,-8.182 -4.449,0 -8.073,3.573 -8.172,7.999 0.801,0.376 1.556,1.02 2.188,1.945 l 0.233,0.34 c 2.135,3.118 0.789,5.668 -2.989,5.668 h -2.248 c -3.778,0 -5.123,-2.55 -2.989,-5.668 l 0.233,-0.34 c 0.633,-0.925 1.387,-1.569 2.188,-1.945 -0.099,-4.426 -3.723,-7.999 -8.172,-7.999 -4.511,0 -8.182,3.671 -8.182,8.182 0,0.93 -0.753,1.683 -1.683,1.683 -0.929,0 -1.682,-0.753 -1.682,-1.683 0,-6.206 4.923,-11.282 11.069,-11.534 V 6.977 c 0,-5.703 4.639,-10.342 10.342,-10.342 5.703,0 10.342,4.639 10.342,10.342"
             style="fill:#000000;fill-opacity:1;fill-rule:nonzero;stroke:none"
             id="path4060"
             inkscape:connector-curvature="0" /></g><g
           id="g4062"
           transform="translate(55.1466,74.9754)"><path
             d="m 0,0 c 0,-2.174 1.769,-3.943 3.943,-3.943 2.174,0 3.943,1.769 3.943,3.943 0,2.174 -1.769,3.943 -3.943,3.943 C 1.769,3.943 0,2.174 0,0"
             style="fill:#000000;fill-opacity:1;fill-rule:nonzero;stroke:none"
             id="path4064"
             inkscape:connector-curvature="0" /></g><g
           id="g4066"
           transform="translate(82.7999,78.9183)"><path
             d="m 0,0 c -2.174,0 -3.942,-1.769 -3.942,-3.943 0,-2.174 1.768,-3.943 3.942,-3.943 2.175,0 3.943,1.769 3.943,3.943 C 3.943,-1.769 2.175,0 0,0"
             style="fill:#000000;fill-opacity:1;fill-rule:nonzero;stroke:none"
             id="path4068"
             inkscape:connector-curvature="0" /></g><g
           id="g4070"
           transform="translate(104.4932,68.8719)"><path
             d="m 0,0 c -4.479,0 -8.122,3.527 -8.122,7.861 0,4.319 3.643,7.833 8.122,7.833 4.479,0 8.121,-3.514 8.121,-7.833 C 8.121,3.527 4.479,0 0,0 m 0,19.059 c -6.334,0 -11.486,-5.023 -11.486,-11.198 0,-6.19 5.152,-11.225 11.486,-11.225 6.333,0 11.486,5.035 11.486,11.225 0,6.175 -5.153,11.198 -11.486,11.198"
             style="fill:#000000;fill-opacity:1;fill-rule:nonzero;stroke:none"
             id="path4072"
             inkscape:connector-curvature="0" /></g><g
           id="g4074"
           transform="translate(104.4366,81.6126)"><path
             d="m 0,0 c -2.819,0 -5.112,-2.239 -5.112,-4.991 0,-0.559 0.453,-1.011 1.011,-1.011 0.559,0 1.012,0.452 1.012,1.011 0,1.637 1.386,2.968 3.089,2.968 0.559,0 1.012,0.453 1.012,1.012 C 1.012,-0.453 0.559,0 0,0"
             style="fill:#000000;fill-opacity:1;fill-rule:nonzero;stroke:none"
             id="path4076"
             inkscape:connector-curvature="0" /></g><g
           id="g4078"
           transform="translate(29.2755,68.2127)"><path
             d="m 0,0 c 0,3.906 3.297,7.084 7.351,7.084 4.052,0 7.35,-3.178 7.35,-7.084 0,-3.921 -3.298,-7.11 -7.35,-7.11 C 3.297,-7.11 0,-3.921 0,0 m 18.065,0 c 0,5.762 -4.806,10.449 -10.714,10.449 C 1.442,10.449 -3.365,5.762 -3.365,0 c 0,-5.775 4.807,-10.475 10.716,-10.475 5.908,0 10.714,4.7 10.714,10.475"
             style="fill:#000000;fill-opacity:1;fill-rule:nonzero;stroke:none"
             id="path4080"
             inkscape:connector-curvature="0" /></g><g
           id="g4082"
           transform="translate(37.5855,71.7767)"><path
             d="m 0,0 c 0,0.559 -0.453,1.012 -1.012,1.012 -2.641,0 -4.789,-2.099 -4.789,-4.679 0,-0.558 0.452,-1.011 1.011,-1.011 0.559,0 1.012,0.453 1.012,1.011 0,1.464 1.241,2.655 2.766,2.655 C -0.453,-1.012 0,-0.559 0,0"
             style="fill:#000000;fill-opacity:1;fill-rule:nonzero;stroke:none"
             id="path4084"
             inkscape:connector-curvature="0" /></g><g
           id="g4086"
           transform="translate(80.6759,102.5716)"><path
             d="m 0,0 c 0,-5.554 -4.662,-10.072 -10.392,-10.072 -5.73,0 -10.392,4.518 -10.392,10.072 0,5.534 4.662,10.036 10.392,10.036 C -4.662,10.036 0,5.534 0,0 m -26.821,-15.979 c -3.861,0 -7.001,3.038 -7.001,6.772 0,3.719 3.14,6.746 7.001,6.746 1.071,0 2.098,-0.233 3.058,-0.688 0.632,-2.561 2.017,-4.838 3.913,-6.595 -0.289,-3.462 -3.352,-6.235 -6.971,-6.235 m 2.687,16.533 c -0.87,0.229 -1.768,0.349 -2.687,0.349 -5.716,0 -10.366,-4.535 -10.366,-10.11 0,-5.589 4.65,-10.136 10.366,-10.136 4.698,0 8.772,3.192 9.993,7.473 1.922,-0.999 4.112,-1.567 6.436,-1.567 7.585,0 13.757,6.028 13.757,13.437 0,7.389 -6.172,13.4 -13.757,13.4 -7.395,0 -13.443,-5.713 -13.742,-12.846"
             style="fill:#000000;fill-opacity:1;fill-rule:nonzero;stroke:none"
             id="path4088"
             inkscape:connector-curvature="0" /></g><g
           id="g4090"
           transform="translate(53.9024,97.909)"><path
             d="m 0,0 c -2.561,0 -4.644,-2.035 -4.644,-4.537 0,-0.559 0.453,-1.011 1.012,-1.011 0.559,0 1.011,0.452 1.011,1.011 0,1.386 1.176,2.514 2.621,2.514 0.559,0 1.012,0.453 1.012,1.011 C 1.012,-0.453 0.559,0 0,0"
             style="fill:#000000;fill-opacity:1;fill-rule:nonzero;stroke:none"
             id="path4092"
             inkscape:connector-curvature="0" /></g><g
           id="g4094"
           transform="translate(96.0001,91.6072)"><path
             d="m 0,0 c -2.719,0 -4.93,2.134 -4.93,4.758 0,2.613 2.211,4.739 4.93,4.739 2.718,0 4.929,-2.126 4.929,-4.739 C 4.929,2.134 2.718,0 0,0 m 7.957,4.758 c 0,4.283 -3.569,7.767 -7.957,7.767 -4.389,0 -7.958,-3.484 -7.958,-7.767 0,-4.294 3.569,-7.786 7.958,-7.786 4.388,0 7.957,3.492 7.957,7.786"
             style="fill:#000000;fill-opacity:1;fill-rule:nonzero;stroke:none"
             id="path4096"
             inkscape:connector-curvature="0" /></g><g
           id="g4098"
           transform="translate(97.1153,99.2225)"><path
             d="m 0,0 c -2.005,0 -3.637,-1.596 -3.637,-3.557 0,-0.52 0.422,-0.942 0.943,-0.942 0.519,0 0.941,0.422 0.941,0.942 0,0.923 0.786,1.674 1.753,1.674 0.521,0 0.942,0.421 0.942,0.941 C 0.942,-0.421 0.521,0 0,0"
             style="fill:#000000;fill-opacity:1;fill-rule:nonzero;stroke:none"
             id="path4100"
             inkscape:connector-curvature="0" /></g><g
           id="g4102"
           transform="translate(63.4635,103.3226)"><path
             d="m 0,0 c 0,-0.628 0.509,-1.137 1.136,-1.137 0.627,0 1.135,0.509 1.135,1.137 0,2.078 1.755,3.768 3.913,3.768 0.627,0 1.135,0.509 1.135,1.137 0,0.628 -0.508,1.137 -1.135,1.137 C 2.774,6.042 0,3.332 0,0"
             style="fill:#000000;fill-opacity:1;fill-rule:nonzero;stroke:none"
             id="path4104"
             inkscape:connector-curvature="0" /></g></g></g></g></svg>